<?xml version="1.0" encoding="utf-8"?>
<!-- Generator: Adobe Illustrator 17.1.0, SVG Export Plug-In . SVG Version: 6.00 Build 0)  -->
<!DOCTYPE svg PUBLIC "-//W3C//DTD SVG 1.1//EN" "http://www.w3.org/Graphics/SVG/1.1/DTD/svg11.dtd">
<svg style="fill:#fff" version="1.1" id="图层_1" xmlns="http://www.w3.org/2000/svg" xmlns:xlink="http://www.w3.org/1999/xlink" x="0px" y="0px"
	 viewBox="0 0 64 24" enable-background="new 0 0 64 24" xml:space="preserve">
<g>
	<path d="M8.3,12.8V4.1H5.3V1.9h9v2.2h-3.2v8.7C11.1,12.8,8.3,12.8,8.3,12.8z"/>
	<path d="M22.1,9.7c0.1,0.8,0.9,1.3,2,1.3c1,0,1.7-0.5,1.7-1.2c0-0.6-0.5-0.9-1.7-1.2l-1.5-0.3c-2-0.3-3-1.5-3-3.2
		c0-2.1,1.7-3.5,4.3-3.5s4.3,1.4,4.4,3.4h-2.6c-0.1-0.8-0.8-1.3-1.8-1.3S22.2,4.2,22.2,5c0,0.6,0.5,0.9,1.6,1.2l1.4,0.3
		c2.1,0.4,3.1,1.4,3.1,3.1c0,2.2-1.7,3.6-4.5,3.6c-2.7,0-4.5-1.3-4.5-3.4H22.1z"/>
	<path d="M36.4,9.7c0.1,0.8,0.9,1.3,2,1.3c1,0,1.7-0.5,1.7-1.2c0-0.6-0.5-0.9-1.7-1.2l-1.5-0.3C35,8,34,6.9,34,5.1
		c0-2.1,1.7-3.5,4.3-3.5c2.6,0,4.3,1.4,4.4,3.4h-2.6c-0.1-0.8-0.8-1.3-1.8-1.3c-1,0-1.6,0.4-1.6,1.2c0,0.6,0.5,0.9,1.6,1.2l1.5,0.2
		c2.1,0.4,3.1,1.4,3.1,3.1c0,2.2-1.7,3.6-4.5,3.6c-2.7,0-4.5-1.3-4.5-3.4L36.4,9.7L36.4,9.7z"/>
</g>
<g>
	<path d="M58.7,7.4c0,3.5-2.1,5.7-5.3,5.7S48,10.9,48,7.4s2.1-5.7,5.4-5.7C56.7,1.6,58.7,3.8,58.7,7.4z M50.9,7.4
		c0,2.1,1,3.4,2.6,3.4c1.5,0,2.6-1.4,2.6-3.4s-1-3.4-2.6-3.4C51.9,3.9,50.9,5.2,50.9,7.4z"/>
</g>
<path d="M8.1,17c-0.3,0.7-0.6,1.3-0.9,1.7c0.2,0,0.3,0,0.5-0.1C7.8,18.4,8,18.3,8.1,18l0.6,0.3c-0.4,0.9-0.9,1.5-1.2,2
	c0.3-0.1,0.7-0.3,1.1-0.4v0.6c-0.7,0.3-1.3,0.4-1.9,0.5l-0.2-0.6c0.1-0.1,0.2-0.1,0.3-0.2C7,20,7.1,19.6,7.5,19.2
	c-0.3,0-0.5,0.1-0.9,0.1l-0.2-0.6c0.1,0,0.2-0.1,0.3-0.3c0.3-0.5,0.5-1.1,0.7-1.7L8.1,17z M8.5,21.4c-0.5,0.3-1.2,0.5-1.9,0.7
	l-0.1-0.6c0.8-0.2,1.4-0.3,2-0.6C8.5,20.9,8.5,21.4,8.5,21.4z M9.8,19.6c0,0.8-0.1,1.3-0.3,1.7c-0.2,0.3-0.4,0.7-0.9,0.9l-0.4-0.5
	c0.3-0.3,0.6-0.4,0.7-0.8c0.2-0.3,0.2-0.8,0.3-1.4H9.8z M8.6,18.9C8.7,18.9,8.7,18.9,8.6,18.9c0.3-0.3,0.5-0.5,0.8-1H8.5v-0.6H10
	c-0.1-0.2-0.2-0.3-0.3-0.5l0.6-0.1c0.1,0.2,0.2,0.4,0.3,0.6h1.3v0.6h-1.8c-0.3,0.4-0.4,0.7-0.6,0.9c0.4,0,0.9-0.1,1.4-0.2l-0.3-0.4
	L11,18c0.4,0.5,0.7,0.9,0.9,1.4l-0.5,0.3c-0.1-0.2-0.2-0.3-0.3-0.4c-0.8,0.1-1.5,0.2-2.4,0.3L8.6,18.9z M11,22.2
	c-0.4,0-0.7-0.2-0.7-0.6v-2.1h0.6v1.9c0,0.1,0,0.2,0.1,0.2h0.3c0.1,0,0.2-0.1,0.2-0.3c0-0.2,0-0.3,0-0.7l0.5,0.2
	c0,0.6-0.1,1.1-0.2,1.2s-0.3,0.2-0.6,0.2H11L11,22.2z M21.3,19.2v0.6h-5.5v-0.6H21.3z M26.5,18.2c0.2-0.2,0.3-0.4,0.5-0.7h-1.4v-0.6
	h2.1v0.4c-0.2,0.3-0.3,0.7-0.6,0.9h1.5c-0.3-0.4-0.7-0.9-0.9-1.3l0.5-0.3c0.1,0.3,0.2,0.4,0.3,0.6c0.2-0.2,0.4-0.3,0.5-0.5l0.4,0.4
	c-0.2,0.3-0.4,0.4-0.6,0.6c0.1,0.1,0.2,0.3,0.3,0.3c0.3-0.2,0.4-0.4,0.6-0.6l0.4,0.3c-0.2,0.3-0.4,0.4-0.6,0.6
	c0.3,0.2,0.5,0.3,0.9,0.5l-0.4,0.5c-0.4-0.3-0.9-0.5-1.2-0.9v0.3h-2.2v-0.2c-0.3,0.3-0.9,0.6-1.5,0.9l-0.3-0.5
	c0.4-0.2,0.8-0.3,1.1-0.6c-0.2-0.2-0.4-0.3-0.7-0.6l0.4-0.4C26.1,17.7,26.3,18,26.5,18.2z M27.3,21.6h1.1c0.2-0.3,0.3-0.4,0.4-0.7
	l0.6,0.2c-0.1,0.2-0.3,0.3-0.3,0.5h1.3v0.6h-5.2v-0.6h1.4c-0.1-0.2-0.3-0.3-0.4-0.5l0.6-0.3C26.9,21.1,27.1,21.3,27.3,21.6z
	 M29.5,19.3v1.5h-3.4v-1.5H29.5z M28.9,19.8h-2.2v0.4h2.2V19.8z M38.6,17v1.9h1v0.6h-0.9l0.5,0.4c-0.3,0.3-0.7,0.7-1,0.9
	c0.4,0.3,0.9,0.6,1.5,0.9l-0.3,0.5c-0.9-0.4-1.5-0.9-2.1-1.5v0.9c0,0.4-0.2,0.6-0.5,0.6h-0.7l-0.2-0.6c0.3,0,0.4,0,0.6,0
	c0.1,0,0.2-0.1,0.2-0.3v-0.8c-0.6,0.5-1.3,0.9-2.1,1.4l-0.3-0.6c0.9-0.4,1.7-0.9,2.3-1.5v-0.7h-2.2v-0.4H38v-0.4h-2.7v-0.5H38v-0.4
	h-2.9v-0.6L38.6,17L38.6,17z M36.1,20.3l-0.4,0.4c-0.2-0.3-0.5-0.4-0.9-0.8l0.4-0.4C35.5,19.8,35.9,20.1,36.1,20.3z M37.3,19.5v0.6
	c0.1,0.1,0.3,0.3,0.3,0.3c0.3-0.3,0.7-0.5,1-0.9H37.3z M46.7,16.7v1h2.1v2.9h-0.6v-0.3h-1.5v2H46v-2h-1.5v0.3h-0.6v-2.9h2.1v-1H46.7
	z M46,19.8v-1.4h-1.5v1.4H46z M48.1,19.8v-1.4h-1.5v1.4H48.1z"/>
<path d="M53.9,18.8c-0.2,1.1-0.4,2.1-0.7,2.8l-0.5-0.3c0.3-0.9,0.5-1.7,0.6-2.6L53.9,18.8z M55.1,22.1c-0.5,0-0.8-0.3-0.8-0.7V18
	h0.6v3.3c0,0.2,0.1,0.3,0.3,0.3h1c0.1,0,0.2-0.1,0.3-0.2s0.1-0.5,0.1-1.2l0.6,0.2c-0.1,0.9-0.2,1.4-0.3,1.5
	c-0.1,0.2-0.3,0.3-0.6,0.3C56.3,22.1,55.1,22.1,55.1,22.1z M56.5,18.3L56,18.7c-0.3-0.5-0.7-1-1.2-1.6l0.5-0.3
	C55.9,17.4,56.3,17.9,56.5,18.3z M58.4,21.1l-0.6,0.3c-0.3-1-0.6-1.9-0.9-2.7l0.6-0.2C57.8,19.3,58.1,20.1,58.4,21.1z"/>
</svg>
