<?xml version="1.0" encoding="utf-8"?>
<!-- Generator: Adobe Illustrator 17.1.0, SVG Export Plug-In . SVG Version: 6.00 Build 0)  -->
<!DOCTYPE svg PUBLIC "-//W3C//DTD SVG 1.1//EN" "http://www.w3.org/Graphics/SVG/1.1/DTD/svg11.dtd">
<svg style="fill:#fff" version="1.1" id="图层_1" xmlns="http://www.w3.org/2000/svg" xmlns:xlink="http://www.w3.org/1999/xlink" x="0px" y="0px"
	 viewBox="0 0 64 24" enable-background="new 0 0 64 24" xml:space="preserve">
<g>
	<path d="M7.6,20.5c-0.2,0.4-0.5,0.7-0.9,1l0.5,0.6c0.5-0.3,0.9-0.8,1.1-1.2c0.2-0.4,0.3-1.2,0.4-2.1H7.9
		C7.8,19.6,7.7,20.1,7.6,20.5z"/>
	<path d="M10.9,21c0,0.2-0.1,0.3-0.2,0.3h-0.4c-0.1,0-0.1-0.1-0.1-0.2v-2.4H9.4v2.6c0,0.5,0.3,0.7,0.8,0.7h0.5
		c0.4,0,0.6-0.1,0.7-0.3c0.1-0.2,0.2-0.6,0.2-1.3l-0.7-0.2C10.9,20.5,10.9,20.8,10.9,21z"/>
	<path d="M7,16.6h1.1c-0.3,0.6-0.6,1-0.8,1.2c0,0-0.1,0-0.2,0.1l0.2,0.7c1.1-0.1,2.1-0.2,3-0.3c0.1,0.2,0.2,0.3,0.3,0.5l0.6-0.4
		c-0.3-0.5-0.6-1-1.1-1.7L9.5,17l0.4,0.6c-0.6,0.1-1.1,0.2-1.7,0.2c0.2-0.3,0.5-0.7,0.7-1.2h2.3v-0.7H9.6c-0.1-0.3-0.2-0.6-0.3-0.8
		l-0.8,0.1c0.1,0.2,0.2,0.4,0.3,0.6H7V16.6z"/>
	<path d="M4.6,19.6l0.2,0.7c0.7-0.1,1.5-0.3,2.3-0.7v-0.7c-0.5,0.2-0.9,0.4-1.4,0.5c0.4-0.5,0.9-1.4,1.5-2.5l-0.7-0.3
		c-0.1,0.3-0.3,0.5-0.4,0.8c-0.2,0-0.5,0.1-0.7,0.1c0.4-0.6,0.7-1.3,1.1-2.2l-0.8-0.3c-0.3,0.8-0.6,1.5-0.9,2.2
		c-0.1,0.2-0.2,0.2-0.3,0.3l0.2,0.7c0.3-0.1,0.7-0.1,1-0.2c-0.3,0.6-0.6,1-0.8,1.2C4.8,19.4,4.7,19.5,4.6,19.6z"/>
	<path d="M7.1,20.2c-0.7,0.3-1.5,0.6-2.4,0.8l0.1,0.8c0.9-0.2,1.7-0.5,2.3-0.8V20.2z"/>
</g>
<g>
	<polygon points="3.2,4.3 6.2,4.3 6.2,12.6 8.9,12.6 8.9,4.3 11.9,4.3 11.9,2.2 3.2,2.2 	"/>
	<path d="M27.6,9.4c0-1.6-0.9-2.5-3-3l-1.3-0.2c-1.1-0.2-1.6-0.6-1.6-1.1c0-0.7,0.6-1.1,1.6-1.1c1,0,1.6,0.5,1.7,1.2h2.5
		c-0.1-1.9-1.7-3.3-4.2-3.3c-2.5,0-4.1,1.3-4.1,3.4c0,1.6,1,2.7,2.9,3l1.4,0.2c1.2,0.2,1.6,0.6,1.6,1.1c0,0.7-0.7,1.1-1.6,1.1
		c-1.1,0-1.9-0.5-1.9-1.2h-2.7c0.1,2,1.7,3.3,4.3,3.3C25.9,12.9,27.6,11.6,27.6,9.4z"/>
	<path d="M40.5,6.4l-1.3-0.2c-1.1-0.2-1.6-0.6-1.6-1.1c0-0.7,0.6-1.1,1.6-1.1s1.6,0.5,1.7,1.2h2.5c-0.1-1.9-1.7-3.3-4.2-3.3
		c-2.5,0-4.1,1.3-4.1,3.4c0,1.6,1,2.7,2.9,3l1.4,0.2c1.2,0.2,1.6,0.6,1.6,1.1c0,0.7-0.7,1.1-1.6,1.1c-1.1,0-1.9-0.5-1.9-1.2h-2.5
		c0.1,2,1.7,3.3,4.3,3.3c2.7,0,4.3-1.3,4.3-3.4C43.4,7.7,42.5,6.8,40.5,6.4z"/>
	<path d="M60.8,7.4c0-3.4-2-5.5-5.1-5.5c-3.1,0-5.2,2.1-5.2,5.5s2,5.5,5.2,5.5C58.7,12.9,60.8,10.8,60.8,7.4z M53.3,7.4
		c0-2,1-3.3,2.5-3.3s2.5,1.3,2.5,3.3c0,2.1-1,3.3-2.5,3.3C54.2,10.7,53.3,9.4,53.3,7.4z"/>
	<path d="M29.7,18.3h-4.3v1.9h4.3V18.3z M29,19.5h-2.7V19H29V19.5z"/>
	<rect x="14.4" y="18.2" width="6.7" height="0.7"/>
	<path d="M29.6,20.5l-0.7-0.2c-0.2,0.3-0.3,0.6-0.6,0.9h-1.4c-0.2-0.3-0.4-0.6-0.7-0.8l-0.7,0.2c0.2,0.2,0.4,0.4,0.6,0.6h-1.7v0.7
		h6.4v-0.7h-1.6C29.3,20.9,29.5,20.7,29.6,20.5z"/>
	<path d="M30.9,16.6l-0.6-0.5c-0.2,0.3-0.5,0.6-0.8,0.8c-0.2-0.2-0.2-0.2-0.4-0.4c0.3-0.2,0.6-0.5,0.8-0.7l-0.5-0.5
		c-0.2,0.2-0.4,0.5-0.7,0.7c-0.2-0.2-0.3-0.5-0.4-0.7l-0.7,0.3c0.2,0.6,0.6,1.1,1.1,1.6h-1.8c0.3-0.3,0.5-0.7,0.7-1.1v-0.6H25v0.7
		h1.6c-0.2,0.2-0.4,0.6-0.7,0.8c-0.2-0.2-0.6-0.5-0.9-0.7l-0.5,0.5c0.3,0.2,0.7,0.5,0.9,0.7c-0.4,0.2-0.8,0.5-1.3,0.7l0.5,0.6
		c0.7-0.3,1.3-0.7,1.7-1.1v0.2h2.7v-0.2c0.4,0.4,0.9,0.7,1.5,1.1l0.5-0.6c-0.4-0.2-0.7-0.4-1.1-0.7C30.4,17.2,30.6,16.9,30.9,16.6z"
		/>
	<path d="M47.7,15.1h-0.8v1.2h-2.5V20H45v-0.4h1.8V22h0.8v-2.5h1.9V20h0.7v-3.6h-2.6C47.7,16.3,47.7,15.1,47.7,15.1z M46.9,18.9H45
		v-1.7h1.8V18.9z M49.6,17.2v1.7h-1.9v-1.7H49.6z"/>
	<path d="M40,19l-0.6-0.5h1.1v-0.7h-1.2v-2.4H35v0.7h3.6v0.5h-3.4v0.7h3.4v0.5h-4.3v0.7H37v0.8c-0.8,0.7-1.8,1.3-2.9,1.8l0.3,0.7
		c1-0.5,1.8-1.1,2.5-1.7V21c0,0.2-0.1,0.3-0.2,0.3c-0.2,0-0.5,0-0.7-0.1l0.2,0.7h0.9c0.4,0,0.7-0.2,0.7-0.8V20
		c0.7,0.7,1.5,1.2,2.5,1.7l0.4-0.7c-0.7-0.3-1.4-0.7-1.9-1.1C39.2,19.8,39.7,19.5,40,19z M37.7,19.2v-0.7h1.7
		c-0.3,0.5-0.7,0.9-1.2,1.1C38.1,19.5,37.9,19.4,37.7,19.2z"/>
	<path d="M35.2,18.6l-0.5,0.5c0.5,0.3,0.8,0.7,1.1,0.9l0.5-0.5C35.9,19.2,35.6,18.9,35.2,18.6z"/>
	<path d="M53.7,20.6l0.7,0.4c0.3-1,0.7-2.1,0.8-3.4l-0.7-0.2C54.3,18.6,54.1,19.6,53.7,20.6z"/>
	<path d="M58.7,17.5c0.4,1,0.8,2.1,1.1,3.3l0.7-0.3c-0.3-1.1-0.7-2.2-1.1-3.2L58.7,17.5z"/>
	<path d="M57.7,17.6l0.7-0.4c-0.3-0.6-0.8-1.2-1.5-2l-0.7,0.4C56.9,16.3,57.4,17,57.7,17.6z"/>
	<path d="M58.3,20.8c-0.1,0.2-0.2,0.2-0.3,0.2h-1.2c-0.2,0-0.3-0.1-0.3-0.3v-4h-0.7v4.2c0,0.6,0.3,0.9,0.9,0.9h1.6
		c0.3,0,0.6-0.1,0.7-0.3c0.2-0.2,0.2-0.8,0.3-1.9l-0.7-0.2C58.3,20.2,58.3,20.7,58.3,20.8z"/>
</g>
</svg>
